<svg width="108" height="38" viewBox="0 0 108 38" fill="none" xmlns="http://www.w3.org/2000/svg">
<g filter="url(#filter0_d_15_15)">
<path d="M27.5841 4.55826L22.0877 4.32437C21.8278 4.32437 20.9702 5.88365 19.5149 9.00222C18.0595 12.0948 16.7991 15.0964 15.7336 18.0071C14.6681 20.9177 14.1353 23.0228 14.1353 24.3222C14.1353 25.5956 14.5381 26.2323 15.3438 26.2323C16.1754 26.2323 17.2149 25.3877 18.4623 23.6984C18.5923 23.5425 18.7222 23.4646 18.8522 23.4646C18.9821 23.4646 19.0471 23.5815 19.0471 23.8154C19.0471 24.0493 18.8651 24.4781 18.5013 25.1018C18.1635 25.7255 17.7087 26.4012 17.1369 27.1289C16.5652 27.8305 15.8246 28.4543 14.915 29C14.0054 29.5717 13.0698 29.8576 12.1083 29.8576C10.6789 29.8576 9.96425 28.8701 9.96425 26.895C9.96425 24.4521 11.1987 20.294 13.6675 14.4207C15.4347 10.2886 17.059 6.8582 18.5403 4.12946H18.0335L14.0184 4.0515C11.7834 4.0515 9.83431 4.33737 8.17108 4.9091C7.2615 5.22096 6.53383 5.68874 5.98808 6.31246C5.46832 6.91018 5.20844 7.63785 5.20844 8.49545L5.5203 10.1327C5.5203 10.3926 5.39036 10.5225 5.13048 10.5225C4.79263 10.5225 4.51976 10.1977 4.31186 9.54797C4.10395 8.87228 4 8.28755 4 7.79377C4 6.57234 4.28587 5.53282 4.8576 4.67521C5.42934 3.81761 6.20898 3.16791 7.19653 2.72611C9.06766 1.89449 11.1337 1.47868 13.3947 1.47868C15.6556 1.47868 18.2154 1.62162 21.0741 1.90749C23.9328 2.16737 26.5316 2.29731 28.8705 2.29731C31.2095 2.29731 32.7298 1.93347 33.4314 1.20581C33.5094 1.38773 33.5484 1.56964 33.5484 1.75156C33.5484 2.60916 33.0026 3.29785 31.9111 3.81761C30.8196 4.31138 29.3773 4.55826 27.5841 4.55826ZM29.8978 13.3292L31.8859 13.3682H32.2757C31.8859 13.6541 31.3271 14.4987 30.5995 15.902C29.8978 17.3054 29.365 18.3709 29.0012 19.0986C28.6633 19.8002 28.2735 20.7618 27.8317 21.9832C27.4159 23.1787 27.208 24.1532 27.208 24.9069C27.208 25.6605 27.4679 26.0374 27.9877 26.0374C28.3255 26.0114 28.7933 25.7775 29.391 25.3357C30.0147 24.8679 30.5215 24.3871 30.9113 23.8934C31.3271 23.3736 31.7689 22.7239 32.2367 21.9443C32.7305 21.1386 33.1463 20.4499 33.4841 19.8782C33.848 19.2805 34.0559 18.9816 34.1078 18.9816C34.2898 18.9816 34.3807 19.2285 34.3807 19.7223C34.3807 20.1901 34.2508 20.6449 33.9909 21.0866C32.8734 22.9318 31.9508 24.3481 31.2232 25.3357C30.4955 26.3232 29.6119 27.2328 28.5724 28.0644C27.5589 28.8701 26.6363 29.2729 25.8047 29.2729C24.3233 29.2729 23.5827 28.1814 23.5827 25.9984C23.5827 24.5171 23.8686 22.8408 24.4403 20.9697C25.012 19.0986 25.8566 17.2924 26.9741 15.5512C26.0645 16.2789 25.155 16.6427 24.2454 16.6427C23.9595 16.6427 23.6606 16.5777 23.3488 16.4478C21.5036 20.0861 20.5031 21.9053 20.3472 21.9053C20.2172 21.9053 20.1523 21.6974 20.1523 21.2816C20.1523 20.8398 20.3082 20.242 20.6201 19.4884C20.9579 18.7087 21.3087 17.9681 21.6726 17.2664C22.0624 16.5647 22.2703 16.1749 22.2963 16.0969C21.3607 15.6292 20.8929 14.8755 20.8929 13.836C20.8929 13.3162 21.0489 12.8484 21.3607 12.4326C21.6986 12.0168 22.1533 11.8089 22.7251 11.8089C23.2968 11.8089 23.7646 11.9908 24.1284 12.3547C24.0765 12.5106 24.0505 12.7445 24.0505 13.0563C24.0505 13.758 24.2974 14.3168 24.7911 14.7326C25.3109 15.1224 25.9346 15.3173 26.6623 15.3173C26.8702 15.3173 27.0261 15.3043 27.1301 15.2783C28.0396 13.9789 28.9622 13.3292 29.8978 13.3292ZM48.4898 13.4072L50.4389 13.4462H50.8287C49.9711 14.1478 48.9186 15.928 47.6711 18.7867C46.4237 21.6194 45.8 23.6854 45.8 24.9849C45.8 25.6605 46.0339 25.9984 46.5017 25.9984C48.009 25.9984 49.9321 23.7764 52.271 19.3325C52.375 19.1505 52.4659 19.0596 52.5439 19.0596C52.6998 19.0596 52.7778 19.3065 52.7778 19.8002C52.7778 20.268 52.6479 20.7228 52.388 21.1646C49.1914 26.5441 46.5147 29.2339 44.3577 29.2339C42.9543 29.2339 42.2526 28.1554 42.2526 25.9984C42.2526 24.3871 42.5255 22.8019 43.0713 21.2426C40.1086 26.4922 37.3669 29.1169 34.8461 29.1169C33.1049 29.1169 32.2343 27.9215 32.2343 25.5306C32.2343 23.7114 32.6241 21.8663 33.4037 19.9952C34.2093 18.124 35.3528 16.5387 36.8341 15.2393C38.3155 13.914 39.9397 13.2513 41.7069 13.2513C42.5385 13.2513 43.3182 13.4462 44.0458 13.836C44.7735 14.1998 45.2543 14.7975 45.4882 15.6292C45.774 15.0314 46.2158 14.5117 46.8135 14.0699C47.4113 13.6281 47.97 13.4072 48.4898 13.4072ZM45.2543 15.98C44.9944 15.1484 44.3837 14.7326 43.4221 14.7326C41.7069 14.7326 40.0437 15.928 38.4324 18.3189C36.8211 20.6838 36.0155 22.8019 36.0155 24.673C36.0155 25.4786 36.3274 25.8814 36.9511 25.8814C37.6268 25.8814 38.4194 25.4656 39.329 24.634C40.2386 23.7764 41.0572 22.7759 41.7849 21.6324C43.3961 19.0856 44.5526 17.2014 45.2543 15.98ZM66.4861 19.0206C66.642 19.0206 66.72 19.2675 66.72 19.7613C66.72 20.255 66.4991 20.8657 66.0573 21.5934C65.6415 22.3211 65.3036 22.8798 65.0437 23.2696C64.8098 23.6335 64.394 24.2312 63.7963 25.0628C63.1986 25.8944 62.6788 26.4922 62.237 26.856C61.7952 27.2198 61.2365 27.6486 60.5608 28.1424C59.4173 28.974 57.923 29.3898 56.0779 29.3898C54.2587 29.3898 52.9333 28.935 52.1017 28.0254C51.2961 27.0899 50.8933 25.8814 50.8933 24.4001C50.8933 21.6714 51.8548 19.1765 53.7779 16.9156C55.727 14.6286 58.014 13.4851 60.6388 13.4851C61.8082 13.4851 62.7438 13.797 63.4455 14.4207C64.1471 15.0184 64.498 15.7461 64.498 16.6037C64.498 17.4353 64.2641 18.163 63.7963 18.7867C63.3285 19.4104 62.7958 19.7223 62.198 19.7223C61.0286 19.7223 60.4439 19.2415 60.4439 18.2799C60.4439 17.9681 60.7687 17.6692 61.4184 17.3834C61.6783 17.2794 61.9122 17.0845 62.1201 16.7986C62.328 16.5128 62.4319 16.1359 62.4319 15.6681C62.4319 14.9925 62.0681 14.6546 61.3404 14.6546C59.7812 14.6546 58.2349 15.7851 56.7016 18.046C55.1683 20.307 54.4016 22.503 54.4016 24.634C54.4016 26.739 55.3242 27.7916 57.1694 27.7916C59.7422 27.7916 62.25 25.8035 64.6929 21.8273C65.1867 21.0477 65.5895 20.385 65.9013 19.8392C66.2392 19.2935 66.4341 19.0206 66.4861 19.0206ZM82.3283 21.2426C81.4187 22.7759 80.4961 24.1662 79.5606 25.4137C77.5595 28.0125 75.5844 29.3119 73.6353 29.3119C72.5698 29.3119 71.7642 28.7791 71.2184 27.7136C70.6987 26.6481 70.4388 25.4656 70.4388 24.1662C70.4388 21.5674 70.8286 20.268 71.6082 20.268C72.8297 20.268 73.9602 19.9952 74.9997 19.4494C76.0392 18.8777 76.559 18.137 76.559 17.2274C76.559 16.4998 76.1432 16.1359 75.3115 16.1359C73.5184 16.1359 71.5303 18.085 69.3473 21.9832C69.1394 22.3731 68.6976 23.2826 68.0219 24.712C67.3722 26.1153 66.7875 27.1808 66.2677 27.9085C65.7739 28.6362 65.2802 29 64.7864 29H62.4085C63.2141 27.4927 64.3966 24.4521 65.9558 19.8782C67.5411 15.2783 68.7106 12.1987 69.4642 10.6395C69.4902 10.5875 69.6461 10.2496 69.932 9.62593C70.2439 9.00222 70.4518 8.57341 70.5557 8.33952C70.6857 8.10563 70.9196 7.66383 71.2574 7.01413C71.5953 6.36443 71.8681 5.88365 72.076 5.5718C72.2839 5.25994 72.5698 4.81814 72.9336 4.24641C73.2975 3.64868 73.6223 3.19389 73.9082 2.88204C74.1941 2.57018 74.5319 2.20635 74.9217 1.79054C75.3115 1.34874 75.6754 1.02389 76.0132 0.815988C76.8968 0.296228 77.7024 0.0363485 78.4301 0.0363485C79.8594 0.0363485 80.5741 0.686049 80.5741 1.98545C80.5741 3.80461 79.4696 6.2215 77.2606 9.23611C75.0776 12.2247 72.6088 15.0574 69.8541 17.7342L69.1524 19.6833C70.3998 18.072 71.8161 16.6687 73.4014 15.4732C74.9867 14.2518 76.442 13.6411 77.7674 13.6411C78.5211 13.6411 79.1058 13.823 79.5216 14.1868C79.9634 14.5507 80.1843 15.0444 80.1843 15.6681C80.1843 17.0975 79.5476 18.254 78.2742 19.1375C77.0267 19.9951 75.5844 20.5539 73.9472 20.8138C74.1811 23.5165 74.5579 25.1668 75.0776 25.7645C75.3375 26.0504 75.6624 26.1933 76.0522 26.1933C76.442 26.1933 76.9748 25.9594 77.6505 25.4916C78.3261 25.0238 78.8719 24.5171 79.2877 23.9713C79.7295 23.3996 80.1843 22.7239 80.6521 21.9443C81.1458 21.1646 81.5617 20.4889 81.8995 19.9172C82.2633 19.3454 82.4712 19.0596 82.5232 19.0596C82.6791 19.0596 82.7571 19.3195 82.7571 19.8392C82.7571 20.333 82.6142 20.8008 82.3283 21.2426ZM78.5081 1.04988C77.0527 1.04988 74.5059 5.72773 70.8676 15.0834C74.1941 11.1852 76.533 7.89773 77.8844 5.22096C78.664 3.81761 79.0538 2.66114 79.0538 1.75156C79.0538 1.28377 78.8719 1.04988 78.5081 1.04988ZM88.8045 1.79054H97.6144C95.8213 3.16791 93.3524 7.42994 90.2079 14.5766C89.4022 16.3958 88.4796 18.7867 87.4401 21.7493C86.4266 24.686 85.9198 26.83 85.9198 28.1814C85.9198 28.5452 85.9718 28.8181 86.0758 29H81.0471C81.7747 25.8554 83.308 21.4895 85.647 15.902C88.7655 8.46946 90.7796 4.24641 91.6892 3.23288C89.4802 3.28485 87.2322 3.73964 84.9453 4.59725C82.6843 5.42886 81.3719 6.4294 81.0081 7.59886C80.9821 7.67683 80.9301 7.71581 80.8522 7.71581C80.6183 7.71581 80.5013 7.54689 80.5013 7.20904C80.5013 7.15707 80.5273 7.02713 80.5793 6.81922C81.0731 5.38988 81.7877 4.28539 82.7233 3.50575C83.6589 2.72611 84.5685 2.24533 85.452 2.06341C86.3616 1.8815 87.4791 1.79054 88.8045 1.79054ZM103.979 6.66329C102.706 7.54689 101.276 9.80784 99.6911 13.4462H103.628L103.667 13.4851C103.667 13.6151 103.524 13.849 103.239 14.1868C102.953 14.4987 102.706 14.6546 102.498 14.6546H99.1454C97.0923 19.7483 96.0658 23.0228 96.0658 24.4781C96.0658 25.4656 96.3777 25.9594 97.0014 25.9594C97.911 25.9594 98.9765 25.1798 100.198 23.6205C100.484 23.2826 100.861 22.7109 101.328 21.9053C102.524 19.9822 103.148 19.0206 103.2 19.0206C103.355 19.0206 103.433 19.2285 103.433 19.6443C103.407 20.6319 102.329 22.555 100.198 25.4137C99.4962 26.3492 98.6516 27.2198 97.6641 28.0254C96.6765 28.8311 95.7799 29.2339 94.9743 29.2339C93.493 29.2339 92.7523 28.1944 92.7523 26.1153C92.7523 24.3741 93.1682 22.3731 93.9998 20.1121V20.0731C93.506 20.9827 93.0772 21.6584 92.7134 22.1002C92.3755 22.542 92.1806 22.7629 92.1286 22.7629C92.0247 22.7629 91.9727 22.6069 91.9727 22.2951C91.9727 21.9572 92.1416 21.4245 92.4795 20.6968C92.8433 19.9692 93.3241 19.0206 93.9218 17.8511C94.5455 16.6817 95.0523 15.6162 95.4421 14.6546H92.8303C92.7523 14.6546 92.7134 14.6026 92.7134 14.4987C92.7134 14.3687 92.8043 14.1608 92.9862 13.875C93.1941 13.5891 93.3501 13.4462 93.454 13.4462H96.4167C98.2878 8.95024 100.185 6.70228 102.108 6.70228C103.226 6.70228 103.849 6.68928 103.979 6.66329Z" fill="white"/>
</g>
<defs>
<filter id="filter0_d_15_15" x="0" y="0.036377" width="107.979" height="37.8212" filterUnits="userSpaceOnUse" color-interpolation-filters="sRGB">
<feFlood flood-opacity="0" result="BackgroundImageFix"/>
<feColorMatrix in="SourceAlpha" type="matrix" values="0 0 0 0 0 0 0 0 0 0 0 0 0 0 0 0 0 0 127 0" result="hardAlpha"/>
<feOffset dy="4"/>
<feGaussianBlur stdDeviation="2"/>
<feComposite in2="hardAlpha" operator="out"/>
<feColorMatrix type="matrix" values="0 0 0 0 0 0 0 0 0 0 0 0 0 0 0 0 0 0 0.25 0"/>
<feBlend mode="normal" in2="BackgroundImageFix" result="effect1_dropShadow_15_15"/>
<feBlend mode="normal" in="SourceGraphic" in2="effect1_dropShadow_15_15" result="shape"/>
</filter>
</defs>
</svg>
